<svg id="visual" viewBox="0 0 960 540" width="960" height="540" xmlns="http://www.w3.org/2000/svg" xmlns:xlink="http://www.w3.org/1999/xlink" version="1.1"><rect x="0" y="0" width="960" height="540" fill="#FFFFFF"></rect><defs><linearGradient id="grad1_0" x1="43.8%" y1="100%" x2="100%" y2="0%"><stop offset="14.444444444444446%" stop-color="#ffffff" stop-opacity="1"></stop><stop offset="85.55555555555554%" stop-color="#ffffff" stop-opacity="1"></stop></linearGradient></defs><defs><linearGradient id="grad2_0" x1="0%" y1="100%" x2="56.3%" y2="0%"><stop offset="14.444444444444446%" stop-color="#ffffff" stop-opacity="1"></stop><stop offset="85.55555555555554%" stop-color="#ffffff" stop-opacity="1"></stop></linearGradient></defs><g transform="translate(960, 540)"><path d="M-243 0C-233.7 -30 -224.4 -60 -212.5 -88C-200.5 -116.1 -185.9 -142.2 -166.2 -166.2C-146.4 -190.2 -121.5 -212 -93 -224.5C-64.4 -237 -32.2 -240 0 -243L0 0Z" fill="#4fbff7"></path></g><g transform="translate(0, 0)"><path d="M243 0C239.7 32 236.3 64.1 224.5 93C212.7 121.9 192.3 147.6 169 169C145.7 190.4 119.4 207.4 90.7 219C62 230.6 31 236.8 0 243L0 0Z" fill="#4fbff7"></path></g></svg>