<svg id="visual" viewBox="0 0 960 540" width="960" height="540" xmlns="http://www.w3.org/2000/svg" xmlns:xlink="http://www.w3.org/1999/xlink" version="1.1"><rect x="0" y="0" width="960" height="540" fill="#FFFFFF"></rect><path d="M0 353L22.8 358.5C45.7 364 91.3 375 137 380.7C182.7 386.3 228.3 386.7 274 380C319.7 373.3 365.3 359.7 411.2 348.8C457 338 503 330 548.8 325.3C594.7 320.7 640.3 319.3 686 330.2C731.7 341 777.3 364 823 375.3C868.7 386.7 914.3 386.3 937.2 386.2L960 386L960 541L937.2 541C914.3 541 868.7 541 823 541C777.3 541 731.7 541 686 541C640.3 541 594.7 541 548.8 541C503 541 457 541 411.2 541C365.3 541 319.7 541 274 541C228.3 541 182.7 541 137 541C91.3 541 45.7 541 22.8 541L0 541Z" fill="#4facf7"></path><path d="M0 374L22.8 379.2C45.7 384.3 91.3 394.7 137 399.3C182.7 404 228.3 403 274 403C319.7 403 365.3 404 411.2 404.2C457 404.3 503 403.7 548.8 402.8C594.7 402 640.3 401 686 394.8C731.7 388.7 777.3 377.3 823 382C868.7 386.7 914.3 407.3 937.2 417.7L960 428L960 541L937.2 541C914.3 541 868.7 541 823 541C777.3 541 731.7 541 686 541C640.3 541 594.7 541 548.8 541C503 541 457 541 411.2 541C365.3 541 319.7 541 274 541C228.3 541 182.7 541 137 541C91.3 541 45.7 541 22.8 541L0 541Z" fill="#3ea4f8"></path><path d="M0 460L22.8 454.3C45.7 448.7 91.3 437.3 137 436.7C182.7 436 228.3 446 274 441.7C319.7 437.3 365.3 418.7 411.2 411.2C457 403.7 503 407.3 548.8 413C594.7 418.7 640.3 426.3 686 423.7C731.7 421 777.3 408 823 410.5C868.7 413 914.3 431 937.2 440L960 449L960 541L937.2 541C914.3 541 868.7 541 823 541C777.3 541 731.7 541 686 541C640.3 541 594.7 541 548.8 541C503 541 457 541 411.2 541C365.3 541 319.7 541 274 541C228.3 541 182.7 541 137 541C91.3 541 45.7 541 22.8 541L0 541Z" fill="#2c9bf8"></path><path d="M0 439L22.8 446.3C45.7 453.7 91.3 468.3 137 470.5C182.7 472.7 228.3 462.3 274 460.3C319.7 458.3 365.3 464.7 411.2 462.5C457 460.3 503 449.7 548.8 451C594.7 452.3 640.3 465.7 686 472.3C731.7 479 777.3 479 823 480.2C868.7 481.3 914.3 483.7 937.2 484.8L960 486L960 541L937.2 541C914.3 541 868.7 541 823 541C777.3 541 731.7 541 686 541C640.3 541 594.7 541 548.8 541C503 541 457 541 411.2 541C365.3 541 319.7 541 274 541C228.3 541 182.7 541 137 541C91.3 541 45.7 541 22.8 541L0 541Z" fill="#1892f8"></path><path d="M0 479L22.8 481.5C45.7 484 91.3 489 137 489.7C182.7 490.3 228.3 486.7 274 487.7C319.7 488.7 365.3 494.3 411.2 494.2C457 494 503 488 548.8 488.7C594.7 489.3 640.3 496.7 686 497.8C731.7 499 777.3 494 823 490C868.7 486 914.3 483 937.2 481.5L960 480L960 541L937.2 541C914.3 541 868.7 541 823 541C777.3 541 731.7 541 686 541C640.3 541 594.7 541 548.8 541C503 541 457 541 411.2 541C365.3 541 319.7 541 274 541C228.3 541 182.7 541 137 541C91.3 541 45.7 541 22.8 541L0 541Z" fill="#0088f7"></path></svg>